<svg version="1.1" id="Layer_1" xmlns="http://www.w3.org/2000/svg" xmlns:xlink="http://www.w3.org/1999/xlink" x="0px" y="0px"
	 width="100%" viewBox="0 0 1024 1024" enable-background="new 0 0 1024 1024" xml:space="preserve">
<path fill="#123950" opacity="1.000000" stroke="none" 
	d="
M409.351746,884.864502 
	C325.981354,850.607422 267.605377,791.932861 233.925308,708.786377 
	C223.136353,682.151550 216.570221,654.438049 213.517838,625.822205 
	C210.754715,599.918213 211.338181,573.946045 211.115189,547.993042 
	C210.828842,514.664734 211.019775,481.332520 210.961426,448.002045 
	C210.884735,404.198914 217.116577,361.574005 233.510971,320.634705 
	C253.784348,270.008972 284.974304,227.442078 327.492889,193.473755 
	C367.832092,161.246582 413.851135,141.182541 464.828644,132.832291 
	C488.878052,128.892914 513.187866,127.655128 537.443604,129.832443 
	C621.389954,137.367859 690.430298,173.785248 744.206299,238.614990 
	C779.426086,281.074341 800.705811,330.122589 810.095642,384.316956 
	C813.016663,401.175629 814.388367,418.264984 814.368225,435.435852 
	C814.307190,487.416321 814.530151,539.397705 814.295227,591.377136 
	C814.050720,645.473450 800.627747,696.176819 775.140808,743.952515 
	C750.280151,790.554199 716.003296,828.313904 671.876709,857.132996 
	C637.684509,879.463806 600.348083,893.891785 559.941223,900.079468 
	C536.336792,903.694153 512.618408,904.383972 488.780670,902.518005 
	C461.574127,900.388367 435.306946,894.275879 409.351746,884.864502 
M373.373871,293.748413 
	C369.856445,310.524628 367.982452,327.489136 367.238007,344.609070 
	C367.031525,349.357941 369.101593,350.667725 373.421539,350.723755 
	C383.239563,350.851135 393.054321,351.269714 402.868011,351.634308 
	C404.027832,351.677399 405.648895,351.051788 406.078064,352.984711 
	C405.130219,354.487457 403.563232,354.668793 402.107605,354.795715 
	C392.809509,355.606384 383.693817,357.533813 374.588348,359.422791 
	C366.324921,361.137085 357.764404,361.841278 350.131500,365.980408 
	C345.666290,368.401764 343.077271,371.835449 343.188599,377.159729 
	C343.294342,382.214569 347.093384,383.819336 350.691071,385.476959 
	C357.218903,388.484619 364.174286,390.262726 371.197601,391.608704 
	C399.825836,397.095215 428.847198,399.244598 457.879028,400.458527 
	C483.646210,401.535919 509.438690,402.046478 535.285950,401.079315 
	C571.366211,399.729248 607.421204,398.509399 643.226990,393.581604 
	C654.253967,392.064026 665.172241,389.788269 675.636963,385.795593 
	C680.780090,383.833252 684.525330,380.869385 684.837341,374.675720 
	C685.164795,368.176117 682.015015,364.333191 676.401123,361.990387 
	C672.562927,360.388550 668.681946,358.889526 664.835022,357.307983 
	C662.595825,356.387390 660.856995,355.191315 660.640320,352.338318 
	C659.672363,339.593262 658.114502,326.904236 656.815002,314.192444 
	C654.337219,289.954010 645.702515,268.397156 630.254089,249.640411 
	C616.638733,233.109329 600.982483,219.080750 580.559143,211.351852 
	C573.515686,208.686356 572.491516,209.240570 570.404846,216.481827 
	C565.821350,232.387451 564.664673,248.808380 563.385132,265.188965 
	C562.724854,273.641479 562.655212,282.138702 562.093323,290.600739 
	C561.710266,296.367798 557.676697,298.316956 552.628174,295.496674 
	C550.067444,294.066162 549.578552,291.813599 549.635193,289.143372 
	C549.889282,277.162323 549.753906,265.194244 550.466614,253.197342 
	C551.534607,235.220688 553.498901,217.463394 558.099731,200.033981 
	C560.114624,192.400681 559.666565,191.814362 551.812744,190.342499 
	C533.566040,186.922852 515.172363,185.913910 496.701324,187.495712 
	C488.449768,188.202347 480.272186,189.801758 472.072052,191.067261 
	C468.166473,191.670013 466.917908,193.606461 467.958649,197.759537 
	C472.000458,213.888626 474.369324,230.255661 475.593781,246.888687 
	C476.413910,258.029358 475.616516,269.197510 477.019775,280.301666 
	C477.493805,284.052856 477.582306,287.945648 476.751495,291.750397 
	C475.780579,296.196960 472.189880,296.846436 468.676941,296.856567 
	C465.249207,296.866486 464.725006,294.188354 464.562592,291.211029 
	C464.055603,281.915833 463.342041,272.631378 462.657410,263.346497 
	C461.570496,248.605591 460.494995,233.859726 456.881622,219.451447 
	C454.022369,208.050125 453.569519,207.653534 443.030334,212.694412 
	C408.247040,229.331192 385.171143,256.210327 373.373871,293.748413 
M701.649475,519.613892 
	C701.635132,516.785095 701.599609,513.989197 700.935181,511.180145 
	C700.379944,508.833221 700.053101,506.462891 697.454224,505.596130 
	C694.637329,504.656647 692.738586,506.395538 690.926819,508.231720 
	C682.851440,516.415649 674.814209,524.638611 666.641479,532.724426 
	C663.569397,535.763855 660.349060,538.715576 656.880737,541.280457 
	C647.642212,548.112549 639.532837,548.077698 630.264771,541.373474 
	C623.107117,536.195862 618.092468,529.183289 613.542603,521.734314 
	C607.431274,511.729034 609.229675,502.268433 615.526611,493.326874 
	C622.525696,483.388245 632.607666,476.593170 641.598389,468.688080 
	C644.600159,466.048737 649.346924,463.696594 647.264465,458.687164 
	C645.381714,454.158173 640.450500,454.417633 636.364502,454.414001 
	C616.557739,454.396484 599.200317,461.356049 584.119995,473.879333 
	C565.922485,488.991150 561.355774,508.976807 565.981384,531.129089 
	C568.509094,543.234680 566.730103,552.433044 556.922485,560.797363 
	C544.899597,571.051025 533.837158,582.451172 522.581787,593.580505 
	C491.416748,624.396423 460.408142,655.370361 429.256500,686.199829 
	C411.135834,704.133057 392.609436,721.645935 373.847229,738.908081 
	C367.891785,744.387329 364.706268,751.361633 364.581085,759.275879 
	C364.396423,770.951599 372.933685,783.145142 383.988647,787.231506 
	C395.715942,791.566528 405.947754,788.485718 414.449585,779.581970 
	C424.689850,768.857483 434.639862,757.852661 444.992035,747.238953 
	C471.397827,720.166016 497.986511,693.274353 524.857300,666.658325 
	C548.176758,643.559937 570.863220,619.833313 594.395203,596.932373 
	C602.613159,588.934753 609.987000,587.011536 620.994507,590.489319 
	C640.143982,596.539490 658.261230,592.152649 674.284973,580.240417 
	C694.223206,565.417969 702.040710,544.817871 701.649475,519.613892 
M441.311432,490.669617 
	C445.699707,488.191376 450.440338,486.761108 455.319733,485.554169 
	C463.392853,483.557312 471.504303,484.334290 479.637177,484.582520 
	C482.542603,484.671234 485.511749,484.119110 486.563141,480.830139 
	C487.675049,477.351959 485.099823,475.550537 482.671936,474.091217 
	C451.436371,455.316345 419.324768,455.108826 387.603271,471.777344 
	C371.971405,479.991272 359.422760,492.928528 346.869965,505.398438 
	C344.811676,507.443085 343.997803,509.682434 344.679474,512.619812 
	C347.798004,526.057983 331.215240,537.672119 322.215668,535.896057 
	C319.141174,535.289307 317.129272,536.195984 315.104858,538.195251 
	C308.228302,544.986450 301.232178,551.657593 294.406982,558.499573 
	C290.476807,562.439453 290.410645,565.089905 294.485962,569.209839 
	C305.734802,580.581848 317.096680,591.844238 328.543762,603.016846 
	C332.507477,606.885498 335.280701,606.855286 339.425018,603.102356 
	C345.229309,597.846375 350.782928,592.314270 356.555573,587.022278 
	C358.981079,584.798767 360.102417,582.386902 359.434875,579.061462 
	C358.666534,575.233887 359.659027,571.629517 362.334564,568.875305 
	C369.797455,561.192871 377.551453,557.673462 388.025848,564.611206 
	C391.780334,567.098022 394.638794,566.860168 397.718506,563.802673 
	C405.995728,555.585144 414.330444,547.425110 422.682587,539.283569 
	C425.486511,536.550354 426.156158,533.729858 424.720093,529.856201 
	C422.770325,524.596802 421.265198,519.084290 422.265045,513.326538 
	C424.159119,502.419250 431.728088,496.152557 441.311432,490.669617 
M575.888367,683.614075 
	C569.509583,677.507141 562.986084,671.541809 556.814636,665.232178 
	C553.847351,662.198486 551.752197,662.514648 549.012146,665.340393 
	C538.924133,675.743713 528.727417,686.041870 518.538147,696.346558 
	C516.431091,698.477417 516.025635,700.266968 518.444397,702.629089 
	C545.755676,729.300781 571.069885,757.881836 597.504517,785.391785 
	C605.380615,793.588196 615.005188,795.599121 625.905151,791.691772 
	C642.199341,785.850708 651.037048,767.780090 644.663818,752.582825 
	C641.672119,745.449097 635.727295,740.627380 630.334229,735.460449 
	C612.408325,718.286560 594.385071,701.214233 575.888367,683.614075 
M452.332947,566.164612 
	C448.238678,562.027710 444.173157,557.871887 439.630554,554.196777 
	C436.989563,552.060181 434.585754,551.908813 432.069397,554.175781 
	C425.017944,560.528381 418.467255,567.379089 412.034821,574.347168 
	C409.829895,576.735718 409.934265,579.018738 412.193115,581.338135 
	C427.279022,596.828369 441.923523,612.753418 457.928925,627.336060 
	C460.542847,629.717651 462.286591,629.302673 464.602722,627.051514 
	C472.354401,619.517334 480.256195,612.137695 488.074677,604.671875 
	C488.880249,603.902649 490.044556,603.332458 490.060791,601.496765 
	C478.050873,589.754700 464.423920,579.283264 452.332947,566.164612 
z"/>
</svg>