<svg version="1.2" xmlns="http://www.w3.org/2000/svg" viewBox="0 0 350 300" width="350" height="300">
	<title>Build bard 2</title>
	<style>
		.s0 { fill: #f9f9ed;stroke: #1e6383;stroke-miterlimit:10;stroke-width: 11 } 
		.s1 { fill: #1e6383 } 
		.s2 { fill: #f9f9ed } 
	</style>
	<g id="Layer 1">
		<path id="Shape 4" fill-rule="evenodd" class="s0" d="m52.6 289.1c0 0-0.6 2.9 5.8 2.9 6.3 0 242 0 242 0 0 0 2.6-0.7 2.9-6.7 0.2-6 0-252.6 0-252.6 0 0 0.3-2.9-3.9-2.9-4.1 0-241 0-241 0 0 0-5.9-0.2-5.8 3.9 0.2 4.1 0 255.4 0 255.4z"/>
		<path id="Shape 3" fill-rule="evenodd" class="s1" d="m77 227c0 0-0.5 3.9 4 4 4.5 0.1 195-1 195-1 0 0 4 1.1 4-5 0-6.1 0-168 0-168 0 0 0.7-4.9-4-5-4.7-0.1-195 0-195 0 0 0-3.8 1.1-4 7-0.2 5.9 0 168 0 168z"/>
		<path id="Shape 1" fill-rule="evenodd" class="s2" d="m197 82c7.3 3.3 25 16 25 16 0 0 1.6 11.6 3 13 1.4 1.4 5.3 7 10 7 5.3 0 6-3 6-3 0 0 0.8-1.1 2 0 1.3 1.1 13 11 13 11 0 0 1.7 2.6-2 7-3.7 4.4-19 23-19 23 0 0-1 1.4-3 0-2-1.4-13-10-13-10 0 0-1.3-1.4 0-4 1.3-2.6 0-5 0-5 0 0-4.4-7-14-6-6.3 3.2-13 11-13 11 0 0-1.1 0.8-2 0-0.9-0.8-19-15-19-15 0 0 6.6-14.9-0.4-23.7-9.4-9.6-32.6-4.3-32.6-4.3l-3.2 0.2c0 0-4.5 0-3.8-3.2 0.8-3.2 11-9 11-9 0 0 11.8-8 30-10 11.6-1.3 19.9 2.7 25 5z"/>
		<path id="Shape 2" fill-rule="evenodd" class="s2" d="m89.5 224.4l76.5-90.4 21 15-52 75z"/>
	</g>
</svg>