<svg version="1.2" xmlns="http://www.w3.org/2000/svg" viewBox="0 0 350 300" width="350" height="300">
	<title>Build bard 2</title>
	<style>
		.s0 { fill: #f9f9ed;stroke: #1e6383;stroke-miterlimit:10;stroke-width: 11 } 
		.s1 { fill: #1e6383 } 
		.s2 { fill: #f9f9ed } 
	</style>
	<g id="Layer 1">
		<path id="Shape 4" fill-rule="evenodd" class="s0" d="m52.6 289.1c0 0-0.6 2.9 5.8 2.9 6.3 0 242 0 242 0 0 0 2.6-0.7 2.9-6.7 0.2-6 0-252.6 0-252.6 0 0 0.3-2.9-3.9-2.9-4.1 0-241 0-241 0 0 0-5.9-0.2-5.8 3.9 0.2 4.1 0 255.4 0 255.4z"/>
		<path id="Shape 3" fill-rule="evenodd" class="s1" d="m77 227c0 0-0.5 3.9 4 4 4.5 0.1 195-1 195-1 0 0 4 1.1 4-5 0-6.1 0-168 0-168 0 0 0.7-4.9-4-5-4.7-0.1-195 0-195 0 0 0-3.8 1.1-4 7-0.2 5.9 0 168 0 168z"/>
		<path id="BUILD BARD" class="s1" aria-label="BUILD BARD"  d="m62.6 244.8v27.2h16.3q5 0 6.2-2.2 1.3-2.3 1.3-5.6 0-2.9-1.4-4.7-1.3-1.9-3.8-2.1 2.4-0.1 3.5-1.9 1-1.8 1-4.2 0-2.4-1.2-4.4-1.3-2.1-6.2-2.1zm14.5 22.6h-7.7v-7.8h7.4q1.6 0 2.2 1 0.5 1 0.5 2.9 0 2-0.5 2.9-0.4 1-1.9 1zm-0.8-11.9h-6.9v-6h7.1q1.4 0 1.9 0.7 0.4 0.7 0.4 2.1 0 1.4-0.5 2.3-0.5 0.9-2 0.9zm26 16.7q6.2 0 9.2-2.2 3.1-2.1 3.1-7v-18.2h-6.9v17.4q0 2.9-1.3 4.1-1.2 1.2-4.1 1.2-2.8 0-4.1-1.2-1.3-1.2-1.3-4.1v-17.4h-6.8v18.2q0 4.9 3 7 3.1 2.2 9.2 2.2zm17-27.4v27.2h6.8v-27.2zm11.5 0v27.2h17.9v-4.6h-11.1v-22.6zm21 0v27.2h14q5.6 0 7.9-3 2.2-3.1 2.2-10.6 0-7.5-2.2-10.6-2.3-3-7.9-3zm12.1 22.6h-5.3v-17.9h5.3q2.6 0 3.9 1.4 1.2 1.5 1.2 7.5 0 6.1-1.2 7.5-1.3 1.5-3.9 1.5zm25.2-22.6v27.2h16.3q5 0 6.3-2.2 1.2-2.3 1.2-5.6 0-2.9-1.3-4.7-1.4-1.9-3.8-2.1 2.3-0.1 3.4-1.9 1.1-1.8 1.1-4.2 0-2.4-1.3-4.4-1.2-2.1-6.2-2.1zm14.6 22.6h-7.7v-7.8h7.3q1.7 0 2.2 1 0.5 1 0.5 2.9 0 2-0.4 2.9-0.5 1-1.9 1zm-0.9-11.9h-6.8v-6h7q1.5 0 1.9 0.7 0.4 0.7 0.4 2.1 0 1.4-0.5 2.3-0.5 0.9-2 0.9zm20.8-10.7l-8.7 27.2h7l1.9-6.6h9.2l1.8 6.6h7.1l-8.7-27.2zm8.4 16.1h-7l3.5-12.1zm12.6-16v27.1h6.8v-10.8h8.5q4.6 0 6.3-2.3 1.6-2.4 1.6-5.7 0-3.5-1.6-5.9-1.5-2.4-6-2.4zm10.5 14.5l5.7 12.6h7.4l-6.4-12.9zm2.9-2.4h-6.5v-7.5h6.5q1.7 0 2.4 1 0.6 1 0.6 2.8 0 1.8-0.6 2.7-0.7 1-2.4 1zm13-12.1v27.1h14q5.6 0 7.9-3 2.2-3 2.2-10.6 0-7.5-2.2-10.5-2.3-3-7.9-3zm12.1 22.5h-5.3v-17.9h5.3q2.6 0 3.9 1.5 1.2 1.4 1.2 7.4 0 6.1-1.2 7.6-1.3 1.4-3.9 1.4z"/>
		<path id="Shape 1" fill-rule="evenodd" class="s2" d="m197 82c7.3 3.3 25 16 25 16 0 0 1.6 11.6 3 13 1.4 1.4 5.3 7 10 7 5.3 0 6-3 6-3 0 0 0.8-1.1 2 0 1.3 1.1 13 11 13 11 0 0 1.7 2.6-2 7-3.7 4.4-19 23-19 23 0 0-1 1.4-3 0-2-1.4-13-10-13-10 0 0-1.3-1.4 0-4 1.3-2.6 0-5 0-5 0 0-4.4-7-14-6-6.3 3.2-13 11-13 11 0 0-1.1 0.8-2 0-0.9-0.8-19-15-19-15 0 0 6.6-14.9-0.4-23.7-9.4-9.6-32.6-4.3-32.6-4.3l-3.2 0.2c0 0-4.5 0-3.8-3.2 0.8-3.2 11-9 11-9 0 0 11.8-8 30-10 11.6-1.3 19.9 2.7 25 5z"/>
		<path id="Shape 2" fill-rule="evenodd" class="s2" d="m89.5 224.4l76.5-90.4 21 15-52 75z"/>
	</g>
</svg>